<svg width="200" height="40" viewBox="0 0 200 40" fill="none" xmlns="http://www.w3.org/2000/svg">
<rect width="132.804" height="40" rx="5" fill="#13E72C"/>
<path d="M10.2196 31.579V9.7608H18.4015C20.0776 9.7608 21.4838 10.052 22.6202 10.6344C23.7637 11.2168 24.6266 12.0335 25.209 13.0847C25.7985 14.1287 26.0932 15.3467 26.0932 16.7388C26.0932 18.1379 25.7949 19.3524 25.1983 20.3822C24.6088 21.405 23.7388 22.1969 22.5882 22.758C21.4377 23.3119 20.0243 23.5889 18.3482 23.5889H12.5208V20.3077H17.8155C18.7956 20.3077 19.5982 20.1727 20.2232 19.9028C20.8482 19.6259 21.3098 19.2246 21.6081 18.699C21.9135 18.1663 22.0662 17.5129 22.0662 16.7388C22.0662 15.9646 21.9135 15.3041 21.6081 14.7572C21.3027 14.2033 20.8375 13.7842 20.2125 13.5001C19.5875 13.209 18.7814 13.0634 17.7942 13.0634H14.1721V31.579H10.2196ZM21.4909 21.6926L26.8922 31.579H22.4817L17.1763 21.6926H21.4909ZM36.5708 31.8986C34.9302 31.8986 33.5133 31.5577 32.3201 30.8759C31.1341 30.1869 30.2214 29.2139 29.5822 27.9568C28.943 26.6926 28.6234 25.2047 28.6234 23.493C28.6234 21.8098 28.943 20.3325 29.5822 19.0612C30.2285 17.7828 31.1305 16.7885 32.2882 16.0783C33.4458 15.3609 34.8059 15.0023 36.3684 15.0023C37.377 15.0023 38.3287 15.1656 39.2235 15.4923C40.1255 15.8119 40.921 16.3091 41.6099 16.9838C42.3059 17.6585 42.8528 18.5179 43.2505 19.5619C43.6483 20.5989 43.8471 21.8347 43.8471 23.2693V24.4518H30.4345V21.8524H40.1504C40.1433 21.1138 39.9835 20.4568 39.671 19.8815C39.3585 19.2991 38.9217 18.8411 38.3606 18.5072C37.8066 18.1734 37.1603 18.0065 36.4217 18.0065C35.6333 18.0065 34.9409 18.1983 34.3443 18.5818C33.7477 18.9582 33.2825 19.4554 32.9487 20.0733C32.622 20.6841 32.4551 21.3553 32.448 22.0868V24.356C32.448 25.3077 32.622 26.1244 32.97 26.8063C33.318 27.481 33.8045 27.9994 34.4295 28.3616C35.0545 28.7168 35.786 28.8943 36.6241 28.8943C37.1852 28.8943 37.693 28.8162 38.1476 28.6599C38.6021 28.4966 38.9963 28.2587 39.3301 27.9462C39.6639 27.6337 39.916 27.2466 40.0865 26.7849L43.6873 27.1898C43.4601 28.1415 43.0268 28.9724 42.3876 29.6827C41.7555 30.3858 40.9458 30.9327 39.9586 31.3233C38.9714 31.7068 37.8422 31.8986 36.5708 31.8986ZM54.2475 31.8986C52.614 31.8986 51.2113 31.5399 50.0394 30.8226C48.8746 30.1053 47.9762 29.1145 47.3441 27.8503C46.7191 26.579 46.4066 25.1159 46.4066 23.4611C46.4066 21.7991 46.7262 20.3325 47.3654 19.0612C48.0046 17.7828 48.9066 16.7885 50.0714 16.0783C51.2433 15.3609 52.6282 15.0023 54.2262 15.0023C55.5543 15.0023 56.7298 15.2473 57.7525 15.7374C58.7823 16.2203 59.6026 16.9057 60.2134 17.7935C60.8242 18.6741 61.1722 19.704 61.2575 20.883H57.5714C57.4222 20.0946 57.0671 19.4376 56.506 18.9121C55.9521 18.3794 55.2099 18.1131 54.2795 18.1131C53.4911 18.1131 52.7987 18.3261 52.2021 18.7523C51.6055 19.1713 51.1403 19.775 50.8065 20.5634C50.4798 21.3517 50.3164 22.2963 50.3164 23.3972C50.3164 24.5122 50.4798 25.471 50.8065 26.2736C51.1332 27.069 51.5913 27.6834 52.1808 28.1166C52.7773 28.5428 53.4769 28.7558 54.2795 28.7558C54.8477 28.7558 55.3555 28.6493 55.8029 28.4362C56.2575 28.2161 56.6374 27.9 56.9428 27.4881C57.2482 27.0761 57.4577 26.5754 57.5714 25.9859H61.2575C61.1651 27.1436 60.8242 28.1699 60.2347 29.0648C59.6452 29.9526 58.8427 30.6486 57.8271 31.1528C56.8114 31.65 55.6183 31.8986 54.2475 31.8986ZM66.8212 37.7153C66.2956 37.7153 65.8091 37.6727 65.3617 37.5875C64.9213 37.5094 64.5698 37.417 64.307 37.3105L65.2019 34.3063C65.763 34.4696 66.2637 34.5477 66.704 34.5406C67.1444 34.5335 67.5314 34.395 67.8652 34.1251C68.2061 33.8624 68.4938 33.422 68.7282 32.8041L69.0584 31.9199L63.1245 15.2153H67.2154L70.9867 27.5733H71.1571L74.9391 15.2153H79.0407L72.4888 33.5605C72.1834 34.427 71.7786 35.1692 71.2743 35.7871C70.7701 36.4121 70.1522 36.8879 69.4206 37.2146C68.6962 37.5484 67.8297 37.7153 66.8212 37.7153ZM88.2905 31.8986C86.657 31.8986 85.2543 31.5399 84.0824 30.8226C82.9176 30.1053 82.0192 29.1145 81.3871 27.8503C80.7621 26.579 80.4496 25.1159 80.4496 23.4611C80.4496 21.7991 80.7692 20.3325 81.4084 19.0612C82.0476 17.7828 82.9496 16.7885 84.1143 16.0783C85.2862 15.3609 86.6712 15.0023 88.2692 15.0023C89.5973 15.0023 90.7727 15.2473 91.7955 15.7374C92.8253 16.2203 93.6456 16.9057 94.2564 17.7935C94.8672 18.6741 95.2152 19.704 95.3004 20.883H91.6143C91.4652 20.0946 91.1101 19.4376 90.549 18.9121C89.995 18.3794 89.2528 18.1131 88.3224 18.1131C87.5341 18.1131 86.8416 18.3261 86.245 18.7523C85.6484 19.1713 85.1832 19.775 84.8494 20.5634C84.5227 21.3517 84.3594 22.2963 84.3594 23.3972C84.3594 24.5122 84.5227 25.471 84.8494 26.2736C85.1761 27.069 85.6342 27.6834 86.2237 28.1166C86.8203 28.5428 87.5199 28.7558 88.3224 28.7558C88.8906 28.7558 89.3984 28.6493 89.8459 28.4362C90.3004 28.2161 90.6804 27.9 90.9858 27.4881C91.2912 27.0761 91.5007 26.5754 91.6143 25.9859H95.3004C95.2081 27.1436 94.8672 28.1699 94.2777 29.0648C93.6882 29.9526 92.8857 30.6486 91.87 31.1528C90.8544 31.65 89.6612 31.8986 88.2905 31.8986ZM102.324 9.7608V31.579H98.4672V9.7608H102.324ZM113.534 31.8986C111.893 31.8986 110.476 31.5577 109.283 30.8759C108.097 30.1869 107.184 29.2139 106.545 27.9568C105.906 26.6926 105.586 25.2047 105.586 23.493C105.586 21.8098 105.906 20.3325 106.545 19.0612C107.191 17.7828 108.093 16.7885 109.251 16.0783C110.409 15.3609 111.769 15.0023 113.331 15.0023C114.34 15.0023 115.292 15.1656 116.186 15.4923C117.088 15.8119 117.884 16.3091 118.573 16.9838C119.269 17.6585 119.816 18.5179 120.213 19.5619C120.611 20.5989 120.81 21.8347 120.81 23.2693V24.4518H107.397V21.8524H117.113C117.106 21.1138 116.946 20.4568 116.634 19.8815C116.321 19.2991 115.885 18.8411 115.324 18.5072C114.77 18.1734 114.123 18.0065 113.385 18.0065C112.596 18.0065 111.904 18.1983 111.307 18.5818C110.711 18.9582 110.245 19.4554 109.912 20.0733C109.585 20.6841 109.418 21.3553 109.411 22.0868V24.356C109.411 25.3077 109.585 26.1244 109.933 26.8063C110.281 27.481 110.767 27.9994 111.392 28.3616C112.017 28.7168 112.749 28.8943 113.587 28.8943C114.148 28.8943 114.656 28.8162 115.11 28.6599C115.565 28.4966 115.959 28.2587 116.293 27.9462C116.627 27.6337 116.879 27.2466 117.049 26.7849L120.65 27.1898C120.423 28.1415 119.99 28.9724 119.35 29.6827C118.718 30.3858 117.909 30.9327 116.922 31.3233C115.934 31.7068 114.805 31.8986 113.534 31.8986Z" fill="#454545"/>
<path d="M144.467 21.0435V30.6316H140.61V8.81341H144.382V17.0485H144.573C144.957 16.1252 145.55 15.3972 146.352 14.8645C147.162 14.3248 148.192 14.0549 149.442 14.0549C150.578 14.0549 151.569 14.2928 152.414 14.7687C153.259 15.2445 153.913 15.9405 154.374 16.8567C154.843 17.7729 155.078 18.8915 155.078 20.2126V30.6316H151.221V20.8091C151.221 19.7083 150.937 18.8525 150.369 18.2417C149.808 17.6238 149.019 17.3148 148.004 17.3148C147.322 17.3148 146.711 17.464 146.171 17.7623C145.639 18.0535 145.22 18.4761 144.914 19.03C144.616 19.584 144.467 20.2552 144.467 21.0435ZM169.438 23.7495V14.268H173.295V30.6316H169.556V27.7232H169.385C169.016 28.6394 168.409 29.3887 167.563 29.9711C166.725 30.5535 165.692 30.8447 164.463 30.8447C163.391 30.8447 162.443 30.6067 161.619 30.1309C160.802 29.6479 160.163 28.9484 159.701 28.0322C159.239 27.1089 159.009 25.9938 159.009 24.687V14.268H162.865V24.0904C162.865 25.1273 163.149 25.9512 163.717 26.562C164.286 27.1728 165.031 27.4782 165.955 27.4782C166.523 27.4782 167.073 27.3397 167.606 27.0627C168.139 26.7857 168.575 26.3738 168.916 25.8269C169.264 25.2729 169.438 24.5805 169.438 23.7495ZM177.431 30.6316V8.81341H181.288V16.9739H181.447C181.646 16.5762 181.927 16.1536 182.289 15.7062C182.651 15.2516 183.141 14.8645 183.759 14.5449C184.377 14.2182 185.165 14.0549 186.124 14.0549C187.388 14.0549 188.528 14.378 189.544 15.0243C190.567 15.6636 191.376 16.6117 191.973 17.8688C192.577 19.1188 192.879 20.6529 192.879 22.4711C192.879 24.268 192.584 25.7949 191.994 27.052C191.405 28.3091 190.602 29.268 189.587 29.9285C188.571 30.589 187.42 30.9192 186.135 30.9192C185.197 30.9192 184.42 30.763 183.802 30.4505C183.184 30.138 182.687 29.7616 182.31 29.3212C181.941 28.8738 181.653 28.4512 181.447 28.0535H181.224V30.6316H177.431ZM181.213 22.4498C181.213 23.508 181.362 24.4349 181.66 25.2303C181.966 26.0258 182.403 26.6472 182.971 27.0947C183.546 27.535 184.242 27.7552 185.059 27.7552C185.911 27.7552 186.625 27.5279 187.2 27.0734C187.776 26.6117 188.209 25.9832 188.5 25.1877C188.798 24.3851 188.947 23.4725 188.947 22.4498C188.947 21.4341 188.802 20.5322 188.511 19.7438C188.219 18.9555 187.786 18.3376 187.211 17.8901C186.636 17.4427 185.918 17.2189 185.059 17.2189C184.235 17.2189 183.535 17.4356 182.96 17.8688C182.385 18.302 181.948 18.9093 181.65 19.6905C181.359 20.4718 181.213 21.3915 181.213 22.4498Z" fill="white"/>
</svg>
